<mxfile host="app.diagrams.net" modified="2022-01-24T03:53:15.283Z" agent="5.0 (Windows NT 10.0; Win64; x64) AppleWebKit/537.36 (KHTML, like Gecko) Chrome/97.0.4692.99 Safari/537.36" etag="b5u5sazJde3T28chU84b" version="16.2.6" type="github">
  <diagram id="v524bHdyOi32CE4B3p0w" name="第 1 页">
    <mxGraphModel dx="1375" dy="742" grid="1" gridSize="10" guides="1" tooltips="1" connect="1" arrows="1" fold="1" page="1" pageScale="1" pageWidth="827" pageHeight="1169" math="0" shadow="0">
      <root>
        <mxCell id="0" />
        <mxCell id="1" parent="0" />
        <mxCell id="Yd95XqDYbCu51CJxHroG-4" style="edgeStyle=orthogonalEdgeStyle;rounded=0;orthogonalLoop=1;jettySize=auto;html=1;exitX=0.25;exitY=1;exitDx=0;exitDy=0;fontFamily=Courier New;fontSize=18;" edge="1" parent="1" source="Yd95XqDYbCu51CJxHroG-2">
          <mxGeometry relative="1" as="geometry">
            <mxPoint x="377.66666666666674" y="200" as="targetPoint" />
          </mxGeometry>
        </mxCell>
        <mxCell id="Yd95XqDYbCu51CJxHroG-5" style="edgeStyle=orthogonalEdgeStyle;rounded=0;orthogonalLoop=1;jettySize=auto;html=1;exitX=0.75;exitY=1;exitDx=0;exitDy=0;fontFamily=Courier New;fontSize=18;" edge="1" parent="1" source="Yd95XqDYbCu51CJxHroG-2">
          <mxGeometry relative="1" as="geometry">
            <mxPoint x="450.33333333333326" y="200" as="targetPoint" />
          </mxGeometry>
        </mxCell>
        <mxCell id="Yd95XqDYbCu51CJxHroG-2" value="" style="rounded=0;whiteSpace=wrap;html=1;fontFamily=Courier New;fontSize=18;fillColor=#B3B3B3;" vertex="1" parent="1">
          <mxGeometry x="341" y="45" width="146" height="60" as="geometry" />
        </mxCell>
        <mxCell id="Yd95XqDYbCu51CJxHroG-3" value="UseSerialGC" style="text;html=1;resizable=0;autosize=1;align=center;verticalAlign=middle;points=[];fillColor=none;strokeColor=none;rounded=0;dashed=1;fontFamily=Courier New;fontSize=18;" vertex="1" parent="1">
          <mxGeometry x="349" y="60" width="130" height="30" as="geometry" />
        </mxCell>
        <mxCell id="Yd95XqDYbCu51CJxHroG-13" style="edgeStyle=orthogonalEdgeStyle;rounded=0;orthogonalLoop=1;jettySize=auto;html=1;exitX=0.25;exitY=1;exitDx=0;exitDy=0;entryX=0.75;entryY=0;entryDx=0;entryDy=0;fontFamily=Courier New;fontSize=12;" edge="1" parent="1" source="Yd95XqDYbCu51CJxHroG-6" target="Yd95XqDYbCu51CJxHroG-11">
          <mxGeometry relative="1" as="geometry" />
        </mxCell>
        <mxCell id="Yd95XqDYbCu51CJxHroG-6" value="" style="rounded=0;whiteSpace=wrap;html=1;fontFamily=Courier New;fontSize=18;dashed=1;dashPattern=1 1;" vertex="1" parent="1">
          <mxGeometry x="302" y="200" width="120" height="50" as="geometry" />
        </mxCell>
        <mxCell id="Yd95XqDYbCu51CJxHroG-15" style="edgeStyle=orthogonalEdgeStyle;rounded=0;orthogonalLoop=1;jettySize=auto;html=1;exitX=0.75;exitY=1;exitDx=0;exitDy=0;entryX=0.25;entryY=0;entryDx=0;entryDy=0;fontFamily=Courier New;fontSize=12;" edge="1" parent="1" source="Yd95XqDYbCu51CJxHroG-7" target="Yd95XqDYbCu51CJxHroG-12">
          <mxGeometry relative="1" as="geometry" />
        </mxCell>
        <mxCell id="Yd95XqDYbCu51CJxHroG-7" value="" style="rounded=0;whiteSpace=wrap;html=1;fontFamily=Courier New;fontSize=18;dashed=1;" vertex="1" parent="1">
          <mxGeometry x="422" y="200" width="120" height="50" as="geometry" />
        </mxCell>
        <mxCell id="Yd95XqDYbCu51CJxHroG-8" value="年轻代" style="text;html=1;resizable=0;autosize=1;align=center;verticalAlign=middle;points=[];fillColor=none;strokeColor=none;rounded=0;fontFamily=Courier New;fontSize=18;" vertex="1" parent="1">
          <mxGeometry x="322" y="210" width="70" height="30" as="geometry" />
        </mxCell>
        <mxCell id="Yd95XqDYbCu51CJxHroG-9" value="老年代" style="text;html=1;resizable=0;autosize=1;align=center;verticalAlign=middle;points=[];fillColor=none;strokeColor=none;rounded=0;fontFamily=Courier New;fontSize=18;dashed=1;" vertex="1" parent="1">
          <mxGeometry x="447" y="210" width="70" height="30" as="geometry" />
        </mxCell>
        <mxCell id="Yd95XqDYbCu51CJxHroG-10" value="&lt;font style=&quot;font-size: 12px&quot;&gt;单线程串行执行,执行过程中应用工作线程停顿，&lt;br&gt;适用于单核CPU&lt;br&gt;&lt;/font&gt;" style="text;html=1;resizable=0;autosize=1;align=center;verticalAlign=middle;points=[];fillColor=none;strokeColor=none;rounded=0;fontFamily=Courier New;fontSize=18;" vertex="1" parent="1">
          <mxGeometry x="279" y="125" width="270" height="50" as="geometry" />
        </mxCell>
        <mxCell id="Yd95XqDYbCu51CJxHroG-11" value="复制算法" style="rounded=0;whiteSpace=wrap;html=1;fontFamily=Courier New;fontSize=12;dashed=1;dashPattern=1 1;" vertex="1" parent="1">
          <mxGeometry x="242" y="290" width="120" height="40" as="geometry" />
        </mxCell>
        <mxCell id="Yd95XqDYbCu51CJxHroG-12" value="标记-整理" style="rounded=0;whiteSpace=wrap;html=1;fontFamily=Courier New;fontSize=12;dashed=1;" vertex="1" parent="1">
          <mxGeometry x="482" y="290" width="120" height="40" as="geometry" />
        </mxCell>
        <mxCell id="Yd95XqDYbCu51CJxHroG-16" style="edgeStyle=orthogonalEdgeStyle;rounded=0;orthogonalLoop=1;jettySize=auto;html=1;exitX=0.25;exitY=1;exitDx=0;exitDy=0;fontFamily=Courier New;fontSize=18;" edge="1" parent="1" source="Yd95XqDYbCu51CJxHroG-18">
          <mxGeometry relative="1" as="geometry">
            <mxPoint x="377.66666666666674" y="515" as="targetPoint" />
          </mxGeometry>
        </mxCell>
        <mxCell id="Yd95XqDYbCu51CJxHroG-17" style="edgeStyle=orthogonalEdgeStyle;rounded=0;orthogonalLoop=1;jettySize=auto;html=1;exitX=0.75;exitY=1;exitDx=0;exitDy=0;fontFamily=Courier New;fontSize=18;" edge="1" parent="1" source="Yd95XqDYbCu51CJxHroG-18">
          <mxGeometry relative="1" as="geometry">
            <mxPoint x="450.33333333333326" y="515" as="targetPoint" />
          </mxGeometry>
        </mxCell>
        <mxCell id="Yd95XqDYbCu51CJxHroG-18" value="" style="rounded=0;whiteSpace=wrap;html=1;fontFamily=Courier New;fontSize=18;fillColor=#B3B3B3;" vertex="1" parent="1">
          <mxGeometry x="341" y="360" width="146" height="60" as="geometry" />
        </mxCell>
        <mxCell id="Yd95XqDYbCu51CJxHroG-19" value="UseParNewGC" style="text;html=1;resizable=0;autosize=1;align=center;verticalAlign=middle;points=[];fillColor=none;strokeColor=none;rounded=0;dashed=1;fontFamily=Courier New;fontSize=18;" vertex="1" parent="1">
          <mxGeometry x="349" y="375" width="130" height="30" as="geometry" />
        </mxCell>
        <mxCell id="Yd95XqDYbCu51CJxHroG-20" style="edgeStyle=orthogonalEdgeStyle;rounded=0;orthogonalLoop=1;jettySize=auto;html=1;exitX=0.25;exitY=1;exitDx=0;exitDy=0;entryX=0.75;entryY=0;entryDx=0;entryDy=0;fontFamily=Courier New;fontSize=12;" edge="1" parent="1" source="Yd95XqDYbCu51CJxHroG-21" target="Yd95XqDYbCu51CJxHroG-27">
          <mxGeometry relative="1" as="geometry" />
        </mxCell>
        <mxCell id="Yd95XqDYbCu51CJxHroG-21" value="" style="rounded=0;whiteSpace=wrap;html=1;fontFamily=Courier New;fontSize=18;dashed=1;dashPattern=1 1;" vertex="1" parent="1">
          <mxGeometry x="302" y="515" width="120" height="50" as="geometry" />
        </mxCell>
        <mxCell id="Yd95XqDYbCu51CJxHroG-22" style="edgeStyle=orthogonalEdgeStyle;rounded=0;orthogonalLoop=1;jettySize=auto;html=1;exitX=0.75;exitY=1;exitDx=0;exitDy=0;entryX=0.25;entryY=0;entryDx=0;entryDy=0;fontFamily=Courier New;fontSize=12;" edge="1" parent="1" source="Yd95XqDYbCu51CJxHroG-23" target="Yd95XqDYbCu51CJxHroG-28">
          <mxGeometry relative="1" as="geometry" />
        </mxCell>
        <mxCell id="Yd95XqDYbCu51CJxHroG-23" value="" style="rounded=0;whiteSpace=wrap;html=1;fontFamily=Courier New;fontSize=18;dashed=1;" vertex="1" parent="1">
          <mxGeometry x="422" y="515" width="120" height="50" as="geometry" />
        </mxCell>
        <mxCell id="Yd95XqDYbCu51CJxHroG-24" value="年轻代" style="text;html=1;resizable=0;autosize=1;align=center;verticalAlign=middle;points=[];fillColor=none;strokeColor=none;rounded=0;fontFamily=Courier New;fontSize=18;" vertex="1" parent="1">
          <mxGeometry x="322" y="525" width="70" height="30" as="geometry" />
        </mxCell>
        <mxCell id="Yd95XqDYbCu51CJxHroG-25" value="老年代" style="text;html=1;resizable=0;autosize=1;align=center;verticalAlign=middle;points=[];fillColor=none;strokeColor=none;rounded=0;fontFamily=Courier New;fontSize=18;dashed=1;" vertex="1" parent="1">
          <mxGeometry x="447" y="525" width="70" height="30" as="geometry" />
        </mxCell>
        <mxCell id="Yd95XqDYbCu51CJxHroG-26" value="&lt;font style=&quot;font-size: 12px&quot;&gt;多线程并行执行,执行过程中应用工作线程停顿，&lt;br&gt;适用于多核心CPU&lt;br&gt;&lt;/font&gt;" style="text;html=1;resizable=0;autosize=1;align=center;verticalAlign=middle;points=[];fillColor=none;strokeColor=none;rounded=0;fontFamily=Courier New;fontSize=18;" vertex="1" parent="1">
          <mxGeometry x="279" y="440" width="270" height="50" as="geometry" />
        </mxCell>
        <mxCell id="Yd95XqDYbCu51CJxHroG-27" value="复制算法" style="rounded=0;whiteSpace=wrap;html=1;fontFamily=Courier New;fontSize=12;dashed=1;dashPattern=1 1;" vertex="1" parent="1">
          <mxGeometry x="242" y="605" width="120" height="40" as="geometry" />
        </mxCell>
        <mxCell id="Yd95XqDYbCu51CJxHroG-28" value="标记-整理" style="rounded=0;whiteSpace=wrap;html=1;fontFamily=Courier New;fontSize=12;dashed=1;" vertex="1" parent="1">
          <mxGeometry x="482" y="605" width="120" height="40" as="geometry" />
        </mxCell>
        <mxCell id="Yd95XqDYbCu51CJxHroG-29" style="edgeStyle=orthogonalEdgeStyle;rounded=0;orthogonalLoop=1;jettySize=auto;html=1;exitX=0.25;exitY=1;exitDx=0;exitDy=0;fontFamily=Courier New;fontSize=18;" edge="1" parent="1" source="Yd95XqDYbCu51CJxHroG-31">
          <mxGeometry relative="1" as="geometry">
            <mxPoint x="377.66666666666674" y="835" as="targetPoint" />
          </mxGeometry>
        </mxCell>
        <mxCell id="Yd95XqDYbCu51CJxHroG-30" style="edgeStyle=orthogonalEdgeStyle;rounded=0;orthogonalLoop=1;jettySize=auto;html=1;exitX=0.75;exitY=1;exitDx=0;exitDy=0;fontFamily=Courier New;fontSize=18;" edge="1" parent="1" source="Yd95XqDYbCu51CJxHroG-31">
          <mxGeometry relative="1" as="geometry">
            <mxPoint x="450.33333333333326" y="835" as="targetPoint" />
          </mxGeometry>
        </mxCell>
        <mxCell id="Yd95XqDYbCu51CJxHroG-31" value="" style="rounded=0;whiteSpace=wrap;html=1;fontFamily=Courier New;fontSize=18;fillColor=#B3B3B3;" vertex="1" parent="1">
          <mxGeometry x="341" y="680" width="146" height="60" as="geometry" />
        </mxCell>
        <mxCell id="Yd95XqDYbCu51CJxHroG-32" value="UseParallelGC" style="text;html=1;resizable=0;autosize=1;align=center;verticalAlign=middle;points=[];fillColor=none;strokeColor=none;rounded=0;dashed=1;fontFamily=Courier New;fontSize=18;" vertex="1" parent="1">
          <mxGeometry x="334" y="695" width="160" height="30" as="geometry" />
        </mxCell>
        <mxCell id="Yd95XqDYbCu51CJxHroG-33" style="edgeStyle=orthogonalEdgeStyle;rounded=0;orthogonalLoop=1;jettySize=auto;html=1;exitX=0.25;exitY=1;exitDx=0;exitDy=0;entryX=0.75;entryY=0;entryDx=0;entryDy=0;fontFamily=Courier New;fontSize=12;" edge="1" parent="1" source="Yd95XqDYbCu51CJxHroG-34" target="Yd95XqDYbCu51CJxHroG-40">
          <mxGeometry relative="1" as="geometry" />
        </mxCell>
        <mxCell id="Yd95XqDYbCu51CJxHroG-34" value="" style="rounded=0;whiteSpace=wrap;html=1;fontFamily=Courier New;fontSize=18;dashed=1;dashPattern=1 1;" vertex="1" parent="1">
          <mxGeometry x="302" y="835" width="120" height="50" as="geometry" />
        </mxCell>
        <mxCell id="Yd95XqDYbCu51CJxHroG-35" style="edgeStyle=orthogonalEdgeStyle;rounded=0;orthogonalLoop=1;jettySize=auto;html=1;exitX=0.75;exitY=1;exitDx=0;exitDy=0;entryX=0.25;entryY=0;entryDx=0;entryDy=0;fontFamily=Courier New;fontSize=12;" edge="1" parent="1" source="Yd95XqDYbCu51CJxHroG-36" target="Yd95XqDYbCu51CJxHroG-41">
          <mxGeometry relative="1" as="geometry" />
        </mxCell>
        <mxCell id="Yd95XqDYbCu51CJxHroG-36" value="" style="rounded=0;whiteSpace=wrap;html=1;fontFamily=Courier New;fontSize=18;dashed=1;" vertex="1" parent="1">
          <mxGeometry x="422" y="835" width="120" height="50" as="geometry" />
        </mxCell>
        <mxCell id="Yd95XqDYbCu51CJxHroG-37" value="年轻代" style="text;html=1;resizable=0;autosize=1;align=center;verticalAlign=middle;points=[];fillColor=none;strokeColor=none;rounded=0;fontFamily=Courier New;fontSize=18;" vertex="1" parent="1">
          <mxGeometry x="322" y="845" width="70" height="30" as="geometry" />
        </mxCell>
        <mxCell id="Yd95XqDYbCu51CJxHroG-38" value="老年代" style="text;html=1;resizable=0;autosize=1;align=center;verticalAlign=middle;points=[];fillColor=none;strokeColor=none;rounded=0;fontFamily=Courier New;fontSize=18;dashed=1;" vertex="1" parent="1">
          <mxGeometry x="447" y="845" width="70" height="30" as="geometry" />
        </mxCell>
        <mxCell id="Yd95XqDYbCu51CJxHroG-39" value="&lt;font style=&quot;font-size: 12px&quot;&gt;与ParNew几乎一样，提供了很多参数提供给用户，&lt;br&gt;用于优化最小的停顿时间和最大的吞吐量&lt;br&gt;&lt;/font&gt;" style="text;html=1;resizable=0;autosize=1;align=center;verticalAlign=middle;points=[];fillColor=none;strokeColor=none;rounded=0;fontFamily=Courier New;fontSize=18;" vertex="1" parent="1">
          <mxGeometry x="269" y="760" width="290" height="50" as="geometry" />
        </mxCell>
        <mxCell id="Yd95XqDYbCu51CJxHroG-40" value="复制算法" style="rounded=0;whiteSpace=wrap;html=1;fontFamily=Courier New;fontSize=12;dashed=1;dashPattern=1 1;" vertex="1" parent="1">
          <mxGeometry x="242" y="925" width="120" height="40" as="geometry" />
        </mxCell>
        <mxCell id="Yd95XqDYbCu51CJxHroG-41" value="标记-整理" style="rounded=0;whiteSpace=wrap;html=1;fontFamily=Courier New;fontSize=12;dashed=1;" vertex="1" parent="1">
          <mxGeometry x="482" y="925" width="120" height="40" as="geometry" />
        </mxCell>
      </root>
    </mxGraphModel>
  </diagram>
</mxfile>
